<svg width="38" height="38" viewBox="0 0 38 38" fill="none" xmlns="http://www.w3.org/2000/svg">
<path d="M31.9949 15.5424C32.6008 17.8474 32.6008 20.1521 31.9948 22.457C31.3885 24.7622 30.224 26.776 28.5003 28.4997C26.7767 30.2233 24.7625 31.3882 22.4576 31.9942C20.1527 32.6004 17.848 32.6004 15.5429 31.9944C13.2377 31.3884 11.2234 30.2234 9.5 28.5C7.77648 26.7765 6.61192 24.7624 6.00553 22.4573C5.39962 20.1524 5.39962 17.8477 6.00559 15.5426C6.61182 13.2375 7.7766 11.2234 9.50013 9.49987C11.2237 7.77635 13.238 6.61138 15.5429 6.00524C17.8477 5.39906 20.1526 5.3994 22.4575 6.00536C24.7624 6.61162 26.7766 7.77657 28.5 9.5C30.2236 11.2236 31.3886 13.2378 31.9949 15.5424ZM27.1147 27.1144C29.1598 25.0693 30.269 22.6077 30.4422 19.7298L30.0713 19.6681C29.9227 19.6432 29.6013 19.631 29.1065 19.6308C28.6118 19.6308 28.1065 19.6658 27.5912 19.7359C27.0755 19.8062 26.4243 19.9503 25.6366 20.169C24.849 20.3875 24.0634 20.6739 23.2799 21.0286C24.0801 23.7253 24.6409 26.3146 24.9624 28.7968C25.7707 28.3019 26.488 27.7411 27.1147 27.1144ZM17.677 30.3926C19.4663 30.5986 21.198 30.401 22.8721 29.7988C22.534 27.4156 21.9813 24.8509 21.2145 22.1048C18.0478 23.952 15.2193 26.1207 12.7289 28.6113C14.2381 29.5925 15.8875 30.1864 17.677 30.3926ZM8.50407 23.6446C9.06887 24.9352 9.86277 26.0919 10.8854 27.1146C11.001 27.2301 11.0918 27.3124 11.1576 27.3619C14.143 24.3765 17.3014 21.9848 20.6332 20.1873C20.3859 19.4121 20.1467 18.7358 19.9157 18.1585C19.8658 18.1754 19.7942 18.2102 19.6992 18.2638C19.6041 18.3176 19.5364 18.3568 19.4947 18.3817L18.8764 18.6785C18.4474 18.8765 17.839 19.0889 17.0518 19.3156C16.2641 19.5421 15.3922 19.7463 14.4355 19.9277C13.4787 20.109 12.3778 20.1833 11.1324 20.15C9.88722 20.1171 8.69168 19.94 7.54544 19.6184C7.61961 21.0121 7.93944 22.3543 8.50407 23.6446ZM10.8855 10.8851C8.95573 12.8149 7.85077 15.157 7.57023 17.9113L7.61966 17.5896C8.54342 17.9361 9.57836 18.1218 10.7246 18.1463C11.8708 18.1708 12.8833 18.1031 13.7616 17.9424C14.6396 17.7813 15.5426 17.5546 16.4708 17.2621C17.3983 16.9692 18.0168 16.7552 18.3259 16.6186C18.6352 16.4825 18.8807 16.3733 19.0622 16.291L19.0993 16.2788L19.1242 16.2539C17.8127 13.3266 16.3368 10.6956 14.6956 8.36194C13.244 8.95551 11.9743 9.7966 10.8855 10.8851ZM21.4435 7.7862C19.8889 7.45216 18.3444 7.43362 16.811 7.73045C18.3693 9.96548 19.7759 12.427 21.029 15.1154C22.926 13.7303 24.4926 11.9241 25.7298 9.6977C24.4267 8.75766 22.9977 8.12037 21.4435 7.7862ZM27.1024 11.1202C27.0363 11.219 26.9519 11.3409 26.8487 11.4851C26.7455 11.6292 26.6198 11.8047 26.4713 12.0109C26.3231 12.2169 26.1516 12.4418 25.958 12.685C25.7642 12.9283 25.5538 13.1838 25.3269 13.4521C25.1003 13.7201 24.8527 14.0004 24.5849 14.2931C24.3165 14.5861 24.0384 14.8767 23.7497 15.1654C23.4613 15.4537 23.1496 15.7487 22.8159 16.0496C22.4823 16.3508 22.146 16.6287 21.808 16.8844C21.8244 16.9506 21.8616 17.0495 21.9194 17.1815C21.9771 17.3133 22.0223 17.4126 22.0558 17.478C22.2453 17.9813 22.4555 18.5545 22.6861 19.1978C23.4862 18.8598 24.2944 18.5833 25.1112 18.3687C25.9275 18.1545 26.6074 18.0103 27.1518 17.9359C27.6964 17.8618 28.2386 17.8186 28.7786 17.8062C29.3188 17.7937 29.6814 17.798 29.8672 17.8183C30.0531 17.839 30.2323 17.8617 30.4053 17.8864L30.4302 17.8864C30.1663 15.2146 29.0904 12.9095 27.2015 10.9717L27.1024 11.1202Z" fill="#333333"/>
</svg>
