<svg width="25" height="26" viewBox="0 0 25 26" fill="none" xmlns="http://www.w3.org/2000/svg">
<path fill-rule="evenodd" clip-rule="evenodd" d="M7.33707 0.653411C5.30222 0.745223 3.53852 1.24272 2.11437 2.66085C0.685244 4.08643 0.193927 5.85711 0.101886 7.87079C0.0446705 9.12764 -0.289893 18.6228 0.68027 21.1129C1.33451 22.7929 2.62305 24.0845 4.31835 24.7408C5.1094 25.0485 6.01242 25.2568 7.33707 25.3176C18.4131 25.8189 22.5189 25.546 24.2502 21.1129C24.5574 20.3238 24.7689 19.4216 24.8273 18.1002C25.3336 6.99586 24.7453 4.58892 22.8149 2.66085C21.2838 1.13353 19.4828 0.0938504 7.33707 0.653411ZM7.43904 23.0844C6.22633 23.0298 5.56837 22.8277 5.12931 22.6577C4.02482 22.2284 3.19521 21.4023 2.76859 20.3042C2.02977 18.4121 2.27481 9.42562 2.34073 7.9715C2.40541 6.54716 2.69397 5.24541 3.69896 4.24043C4.94275 2.99971 6.54972 2.39165 17.4914 2.88546C18.9193 2.94997 20.2241 3.23794 21.2315 4.24043C22.4753 5.48114 23.0923 7.10048 22.5898 18.0002C22.535 19.2098 22.3323 19.8662 22.1619 20.3042C21.0363 23.1889 18.4466 23.5893 7.43904 23.0844ZM17.6121 6.36201C17.6121 7.18337 18.28 7.85126 19.1047 7.85126C19.9293 7.85126 20.5984 7.18337 20.5984 6.36201C20.5984 5.54066 19.9293 4.87337 19.1047 4.87337C18.28 4.87337 17.6121 5.54066 17.6121 6.36201ZM6.07833 12.9849C6.07833 16.5036 8.93783 19.3563 12.4652 19.3563C15.9927 19.3563 18.8522 16.5036 18.8522 12.9849C18.8522 9.46625 15.9927 6.6153 12.4652 6.6153C8.93783 6.6153 6.07833 9.46625 6.07833 12.9849ZM8.31966 12.9849C8.31966 10.702 10.1754 8.84979 12.4652 8.84979C14.7551 8.84979 16.6108 10.702 16.6108 12.9849C16.6108 15.2691 14.7551 17.1219 12.4652 17.1219C10.1754 17.1219 8.31966 15.2691 8.31966 12.9849Z" fill="#333333"/>
</svg>
