<svg width="21" height="22" viewBox="0 0 21 22" fill="none" xmlns="http://www.w3.org/2000/svg">
<path fill-rule="evenodd" clip-rule="evenodd" d="M21 21.5H16.8V14.151C16.8 12.135 15.9107 11.0103 14.3157 11.0103C12.5801 11.0103 11.55 12.1823 11.55 14.151V21.5H7.35V7.85H11.55V9.38501C11.55 9.38501 12.8677 7.07275 15.8371 7.07275C18.8076 7.07275 21 8.88541 21 12.636V21.5ZM2.5641 5.66694C1.14765 5.66694 0 4.50991 0 3.08296C0 1.65706 1.14765 0.5 2.5641 0.5C3.9795 0.5 5.12715 1.65706 5.12715 3.08296C5.1282 4.50991 3.9795 5.66694 2.5641 5.66694ZM0 21.5H5.25V7.85H0V21.5Z" fill="#333333"/>
</svg>
