<svg width="200" height="53" viewBox="0 0 200 53" fill="none" xmlns="http://www.w3.org/2000/svg">
<path d="M5.22557 5.13479V21.8962H17.6476V26.9943H5.22557V52.7049H0V0H31.8597V5.13479H5.22557Z" fill="black"/>
<path d="M51.334 0.328125L51.4248 0.45748V0.328125H51.334Z" fill="black"/>
<path d="M100.569 0.015625C98.182 0.015625 95.8676 0.345714 93.6797 0.950886C91.8354 1.46436 90.0815 2.17957 88.418 3.05982V49.6213C90.0634 50.5016 91.8354 51.2168 93.6797 51.7303C95.8676 52.3354 98.182 52.6655 100.569 52.6655C114.907 52.6655 126.534 40.8739 126.534 26.3314C126.534 11.8073 114.907 0.015625 100.569 0.015625ZM100.569 47.5674C98.1458 47.5674 95.8314 47.1457 93.6797 46.3938V6.32408C95.8314 5.55387 98.1639 5.15041 100.569 5.15041C112.123 5.15041 121.489 14.6498 121.489 26.3681C121.489 38.0681 112.123 47.5674 100.569 47.5674Z" fill="black"/>
<path d="M189.621 37.6279C195.787 34.2537 199.982 27.6334 199.982 20.023C199.982 8.98316 191.158 0.015625 180.255 0.015625C177.724 0.015625 175.319 0.492431 173.113 1.37268C171.142 2.1429 169.334 3.24321 167.725 4.58192V52.6839H173.113V38.6733C175.319 39.5535 177.742 40.0303 180.255 40.0303C181.864 40.0303 183.419 39.8286 184.92 39.4618L194.033 52.6839H200L189.621 37.6279ZM181.539 34.5838C181.105 34.6204 180.689 34.6388 180.237 34.6388C177.633 34.6388 175.192 33.9419 173.095 32.7132V7.31437C175.21 6.08569 177.633 5.38882 180.237 5.38882C188.193 5.38882 194.666 11.9357 194.666 20.023C194.666 25.7996 191.357 30.806 186.548 33.1717C185.011 33.9236 183.329 34.4187 181.539 34.5838Z" fill="black"/>
<path d="M136.19 5.15041V21.8752H148.774V26.9916H136.19V47.5674H163.149V52.6839H130.892V0.015625H163.149V5.15041H136.19Z" fill="black"/>
<path d="M136.316 52.6875L141.542 52.7059V52.6875H136.316Z" fill="black"/>
<path d="M78.6377 52.9258V53.0004H78.6937L78.6377 52.9258Z" fill="black"/>
<path d="M83.1385 0.015625V52.6839H77.9672L77.9129 52.6105L50.7002 10.872V52.6839H45.4746V0.015625H50.6098L50.7002 0.144008L77.9129 41.8825V0.015625H83.1385Z" fill="black"/>
<path d="M35.2402 52.6866V0H40.4658V52.6866H35.2402Z" fill="black"/>
</svg>
