<svg width="71" height="72" viewBox="0 0 71 72" fill="none" xmlns="http://www.w3.org/2000/svg">
<path d="M35.4422 71.0004C54.4641 71.0004 69.8844 55.8567 69.8844 37.176C69.8844 18.4953 54.4641 3.35156 35.4422 3.35156C16.4203 3.35156 1 18.4953 1 37.176C1 55.8567 16.4203 71.0004 35.4422 71.0004Z" stroke="black" stroke-width="0.30741" stroke-miterlimit="10"/>
<path d="M35.345 3.33203L3.09375 48.6321" stroke="black" stroke-width="3.05311" stroke-miterlimit="10"/>
<path d="M67.8879 25.6595L35.2861 3.32031" stroke="black" stroke-width="3.05311" stroke-miterlimit="10"/>
<path d="M64.4814 56.3249L30.6152 33.7305" stroke="black" stroke-width="0.81976" stroke-miterlimit="10" stroke-dasharray="4.1 4.1"/>
<path d="M15.8115 64.8665L55.2881 9.42969" stroke="black" stroke-width="0.81976" stroke-miterlimit="10" stroke-dasharray="4.1 4.1"/>
<path d="M35.5499 38.4636C36.292 38.4636 36.8937 37.8728 36.8937 37.1439C36.8937 36.4151 36.292 35.8242 35.5499 35.8242C34.8077 35.8242 34.2061 36.4151 34.2061 37.1439C34.2061 37.8728 34.8077 38.4636 35.5499 38.4636Z" fill="black" stroke="black" stroke-width="2.44249" stroke-miterlimit="10"/>
<path d="M3.0938 49.9402C3.83596 49.9402 4.4376 49.3493 4.4376 48.6205C4.4376 47.8916 3.83596 47.3008 3.0938 47.3008C2.35164 47.3008 1.75 47.8916 1.75 48.6205C1.75 49.3493 2.35164 49.9402 3.0938 49.9402Z" fill="black" stroke="black" stroke-width="2.44249" stroke-miterlimit="10"/>
<path d="M35.3458 4.63939C36.0879 4.63939 36.6896 4.04855 36.6896 3.3197C36.6896 2.59085 36.0879 2 35.3458 2C34.6036 2 34.002 2.59085 34.002 3.3197C34.002 4.04855 34.6036 4.63939 35.3458 4.63939Z" fill="black" stroke="black" stroke-width="2.44249" stroke-miterlimit="10"/>
<path d="M67.8692 26.9206C68.6114 26.9206 69.213 26.3298 69.213 25.601C69.213 24.8721 68.6114 24.2812 67.8692 24.2812C67.127 24.2812 66.5254 24.8721 66.5254 25.601C66.5254 26.3298 67.127 26.9206 67.8692 26.9206Z" fill="black" stroke="black" stroke-width="2.44249" stroke-miterlimit="10"/>
<path d="M35.5496 70.9808C54.5715 70.9808 69.9918 55.8371 69.9918 37.1564C69.9918 18.4757 54.5715 3.33203 35.5496 3.33203C16.5277 3.33203 1.10742 18.4757 1.10742 37.1564C1.10742 55.8371 16.5277 70.9808 35.5496 70.9808Z" stroke="black" stroke-width="0.81976" stroke-miterlimit="10"/>
<path d="M35.3452 3.20006C51.8311 3.08531 66.4863 14.6566 69.4661 31.1337C72.7866 49.5329 60.2834 67.0811 41.5579 70.3325C24.8285 73.2396 8.78081 63.7627 3.18164 48.5957" stroke="black" stroke-width="1.83187" stroke-miterlimit="10"/>
<path d="M19.3184 25.6484L35.2274 37.0196" stroke="black" stroke-width="3.05311" stroke-miterlimit="10"/>
</svg>
