<svg width="25" height="22" viewBox="0 0 25 22" fill="none" xmlns="http://www.w3.org/2000/svg">
<path fill-rule="evenodd" clip-rule="evenodd" d="M7.8625 21.5C17.2962 21.5 22.4562 13.4196 22.4562 6.41311C22.4562 6.18309 22.4562 5.9548 22.4412 5.72737C23.445 4.97787 24.3113 4.04728 25 2.98249C24.065 3.41151 23.0712 3.69287 22.055 3.81691C23.125 3.154 23.9263 2.11253 24.31 0.883616C23.3025 1.5013 22.2012 1.93724 21.0525 2.17114C19.11 0.0363697 15.8612 -0.0670605 13.795 1.94106C12.4637 3.23587 11.8975 5.16642 12.3112 7.00784C8.1875 6.79334 4.345 4.78008 1.74 1.4681C0.37875 3.89102 1.075 6.98946 3.32875 8.54531C2.5125 8.52075 1.71375 8.29356 1 7.88264V7.94993C1.00125 10.4737 2.7225 12.6467 5.115 13.1468C4.36 13.36 3.5675 13.3909 2.8 13.2372C3.47125 15.3978 5.3975 16.8776 7.59125 16.9203C5.775 18.396 3.53125 19.1973 1.22125 19.1948C0.81375 19.1935 0.40625 19.1689 0 19.1185C2.34625 20.6743 5.075 21.5 7.8625 21.4962" fill="#333333"/>
</svg>
